<svg xmlns="http://www.w3.org/2000/svg" width="32" height="32">
  <filter id="highlight" x="-50%" y="-50%" width="200%" height="200%">
    <feGaussianBlur stdDeviation="2" />
  </filter>
  <g stroke="black">
    <path fill="#f44336" d="M 16,16 L 7.18,3.86 A 15,15 0 0,1 24.82,3.86 Z" />
    <path fill="#ffeb3b" d="M 16,16 L 1.73,20.64 A 15,15 0 0,1 9.19,2.63 Z" />
    <path fill="#8bc34a" d="M 16,16 L 24.82,3.86 A 15,15 0 0,1 30.27,20.64 Z" />
    <path fill="#2196f3" d="M 16,16 L 16,31 A 15,15 0 0,1 1.73,20.64 Z" />
    <path fill="#9c27b0" d="M 16,16 L 30.27,20.64 A 15,15 0 0,1 16,31 Z" />
</g>
  <circle cx="7" cy="7" r="4" fill="white" filter="url(#highlight)" />
</svg>
